# xmcd CD database file
#
# Track frame offsets:
#	150
#	40971
#	94878
#	145070
#	196128
#	239654
#
# Disc length: 3919 seconds
#
# Revision: 0
# Processed by: cddbd v1.5.2PL0 Copyright (c) Steve Scherf et al.
# Submitted via: CDex 1.51
#
DISCID=500f4d06
DTITLE=Vein feat. Dave Liebman - Lemuria - Live
DYEAR=2011
DGENRE=Jazz
TTITLE0=In Your Own Sweet Way
TTITLE1=Lemuria
TTITLE2=I Loves You Porgy
TTITLE3=Evolution
TTITLE4=Climbing
TTITLE5=Summertime
EXTD=YEAR: 2011
EXTT0=
EXTT1=
EXTT2=
EXTT3=
EXTT4=
EXTT5=
PLAYORDER=
